<svg width="300" height="300" viewBox="0 0 300 300" fill="none" xmlns="http://www.w3.org/2000/svg">
<path d="M295.161 0H4.83871C2.16653 0 0 2.16653 0 4.83871V295.161C0 297.833 2.16653 300 4.83871 300H295.161C297.833 300 300 297.833 300 295.161V4.83871C300 2.16653 297.833 0 295.161 0ZM290.323 290.323H9.67742V9.67742H290.323V290.323Z" fill="#8257E6"/>
<path d="M58.0645 154.839H145.161V241.935C145.161 244.608 147.328 246.774 150 246.774C152.672 246.774 154.839 244.608 154.839 241.935V154.839H241.935C244.608 154.839 246.774 152.672 246.774 150C246.774 147.328 244.608 145.161 241.935 145.161H154.839V58.0645C154.839 55.3923 152.672 53.2258 150 53.2258C147.328 53.2258 145.161 55.3923 145.161 58.0645V145.161H58.0645C55.3923 145.161 53.2258 147.328 53.2258 150C53.2258 152.672 55.3923 154.839 58.0645 154.839Z" fill="#8257E6"/>
</svg>
