<svg width="95" height="130" viewBox="0 0 95 130" fill="none" xmlns="http://www.w3.org/2000/svg">
<path d="M11.8094 0L43.3011 110.382H0V11.7706C0 5.27063 5.28798 0 11.8094 0Z" fill="#6B008E"/>
<path d="M95 1.96177V98.6116L63.5083 102.535L87.1271 0H93.0318C94.1188 0 95 0.87835 95 1.96177Z" fill="#6B008E"/>
<path d="M87.1272 0V102.535H11.8094V0H67.4448L73.3495 7.84708L79.2542 0H87.1272Z" fill="#8600B3"/>
<path d="M95 122.153V128.038C95 129.122 94.1188 130 93.0318 130H87.1271L79.2543 114.306L95 122.153Z" fill="#6B008E"/>
<path d="M95 98.6116V106.459L79.2543 114.306L87.1271 98.6116H95Z" fill="#6B008E"/>
<path d="M11.8094 98.6116C5.28798 98.6116 0 103.882 0 110.382V118.229C0 124.729 5.28798 130 11.8094 130H67.4447L73.3494 126.076L79.2541 130H87.127V98.6116H11.8094Z" fill="#6B008E"/>
<path d="M87.1271 106.459H95C92.8245 108.627 91.7354 111.465 91.7354 114.306L75.9895 118.229L87.1271 106.459Z" fill="white"/>
<path d="M95 122.153H87.1271L75.9895 114.306H91.7354C91.7354 117.146 92.8245 119.985 95 122.153Z" fill="white"/>
<path d="M87.1272 122.153H11.8094C9.63648 122.153 7.87294 120.395 7.87294 118.229V114.306L11.8094 110.382H79.9261L83.8626 114.306C83.8626 117.147 84.9517 119.985 87.1272 122.153Z" fill="white"/>
<path d="M11.8094 106.459H87.1272C84.9517 108.627 83.8626 111.465 83.8626 114.306H7.87294V110.382C7.87294 108.217 9.63648 106.459 11.8094 106.459Z" fill="white"/>
<path d="M67.4449 98.6117V130H79.2542V98.6117L73.3495 90.7646L67.4449 98.6117Z" fill="#DF83FE"/>
<path d="M67.4449 0H79.2542V98.6115H67.4449V0Z" fill="#DF83FE"/>
</svg>
