<svg width="512" height="512" viewBox="0 0 512 512" fill="none" xmlns="http://www.w3.org/2000/svg">
<g clip-path="url(#clip0)">
<path d="M330.667 266.667H10.6667C4.77867 266.667 0 261.888 0 256C0 250.112 4.77867 245.333 10.6667 245.333H330.667C336.555 245.333 341.333 250.112 341.333 256C341.333 261.888 336.555 266.667 330.667 266.667Z" fill="#8257E6"/>
<path d="M245.333 352C242.603 352 239.872 350.955 237.781 348.885C233.621 344.725 233.621 337.963 237.781 333.803L315.584 256L237.803 178.219C233.643 174.059 233.643 167.296 237.803 163.136C241.963 158.976 248.725 158.976 252.885 163.136L338.219 248.469C342.379 252.629 342.379 259.392 338.219 263.552L252.885 348.885C250.795 350.955 248.064 352 245.333 352V352Z" fill="#8257E6"/>
<path d="M256 490.667C156.693 490.667 67.776 427.797 34.7307 334.229C32.768 328.661 35.6907 322.581 41.2373 320.619C46.8053 318.699 52.8853 321.579 54.848 327.125C84.8853 412.181 165.717 469.333 256 469.333C373.632 469.333 469.333 373.632 469.333 256C469.333 138.368 373.632 42.6666 256 42.6666C165.717 42.6666 84.8853 99.8186 54.8693 184.896C52.9067 190.443 46.8053 193.323 41.2587 191.403C35.712 189.44 32.7893 183.36 34.752 177.792C67.776 84.2026 156.693 21.3333 256 21.3333C385.387 21.3333 490.667 126.613 490.667 256C490.667 385.387 385.387 490.667 256 490.667Z" fill="#8257E6"/>
</g>
<defs>
<clipPath id="clip0">
<rect width="512" height="512" fill="white"/>
</clipPath>
</defs>
</svg>
