<svg width="449" height="448" viewBox="0 0 449 448" fill="none" xmlns="http://www.w3.org/2000/svg">
<g clip-path="url(#clip0)">
<path d="M9.28007 209.458L425.279 17.463C431.903 14.455 439.807 16.247 444.415 21.9429C449.055 27.6387 449.215 35.7345 444.799 41.5904L307.999 223.986L444.799 406.381C449.215 412.237 449.055 420.365 444.447 426.029C441.343 429.901 436.703 431.981 431.999 431.981C429.727 431.981 427.455 431.501 425.311 430.509L9.31205 238.514C3.61607 235.89 9.53923e-05 230.226 9.53923e-05 223.986C9.53923e-05 217.746 3.61609 212.082 9.28007 209.458Z" fill="#a70505"/>
</g>
<defs>
<clipPath id="clip0">
<rect width="448.01" height="448" fill="white" transform="matrix(-1 0 0 1 448.01 0)"/>
</clipPath>
</defs>
</svg>
