<svg width="130" height="130" viewBox="0 0 130 130" fill="none" xmlns="http://www.w3.org/2000/svg">
<g clip-path="url(#clip0)">
<path d="M79.0763 118.959V122.252C79.0763 122.541 79.0608 122.83 79.0298 123.112C78.6011 126.986 75.3158 130 71.3279 130H59.4471C55.4593 130 52.174 126.986 51.7453 123.112C51.7143 122.83 51.6988 122.541 51.6988 122.252V118.959C52.7242 119.416 53.8606 119.669 55.0564 119.669H75.7187C76.9145 119.669 78.0509 119.416 79.0763 118.959Z" fill="#6B008E"/>
<path d="M65.0001 16.9335C63.9301 16.9335 63.063 16.0665 63.063 14.9964V1.9371C63.063 0.867048 63.9301 7.76952e-06 65.0001 7.76952e-06C66.0702 7.76952e-06 66.9372 0.867048 66.9372 1.9371V14.9964C66.9372 16.0665 66.0699 16.9335 65.0001 16.9335Z" fill="#8600B3"/>
<path d="M30.2291 31.3364C29.7332 31.3364 29.2376 31.1473 28.8592 30.7692L19.6247 21.5345C18.8682 20.7777 18.8682 19.5514 19.6247 18.7949C20.3818 18.0384 21.6081 18.0389 22.3643 18.7949L31.5988 28.0297C32.3553 28.7864 32.3553 30.0127 31.5988 30.7692C31.2204 31.1473 30.7245 31.3364 30.2291 31.3364Z" fill="#8600B3"/>
<path d="M15.8265 66.1071H2.76694C1.69689 66.1071 0.829849 65.2401 0.829849 64.17C0.829849 63.1 1.69689 62.2329 2.76694 62.2329H15.8263C16.8963 62.2329 17.7634 63.1 17.7634 64.17C17.7634 65.2401 16.8963 66.1071 15.8265 66.1071Z" fill="#8600B3"/>
<path d="M20.9947 110.113C20.499 110.113 20.0031 109.924 19.6247 109.545C18.8682 108.789 18.8682 107.562 19.6247 106.806L28.8592 97.5714C29.616 96.8151 30.8423 96.8151 31.5988 97.5714C32.3553 98.3281 32.3553 99.5544 31.5988 100.311L22.3643 109.545C21.9859 109.924 21.4903 110.113 20.9947 110.113Z" fill="#8600B3"/>
<path d="M109.005 110.113C108.51 110.113 108.014 109.924 107.635 109.545L98.4009 100.311C97.6444 99.5542 97.6444 98.3279 98.4009 97.5714C99.1577 96.8151 100.384 96.8151 101.14 97.5714L110.375 106.806C111.131 107.563 111.131 108.789 110.375 109.545C109.997 109.924 109.501 110.113 109.005 110.113Z" fill="#8600B3"/>
<path d="M127.233 66.1071H114.174C113.104 66.1071 112.237 65.2401 112.237 64.17C112.237 63.1 113.104 62.2329 114.174 62.2329H127.233C128.303 62.2329 129.17 63.1 129.17 64.17C129.17 65.2401 128.303 66.1071 127.233 66.1071Z" fill="#8600B3"/>
<path d="M99.7708 31.3364C99.2752 31.3364 98.7793 31.1473 98.4009 30.7692C97.6444 30.0125 97.6444 28.7862 98.4009 28.0297L107.635 18.7949C108.392 18.0387 109.618 18.0387 110.375 18.7949C111.131 19.5517 111.131 20.778 110.375 21.5345L101.14 30.7692C100.762 31.1473 100.266 31.3364 99.7708 31.3364Z" fill="#8600B3"/>
<path d="M65.3875 117.086C65.3875 117.086 52.7242 119.416 51.6988 118.959V122.252C51.6988 122.541 51.7143 122.83 51.7453 123.112C52.174 126.986 55.4593 130 59.4471 130H62.8048C59.4355 130 56.5684 127.848 55.5012 124.845C55.3206 124.336 55.6905 123.801 56.2295 123.801H75.7187C76.8964 123.801 78.0173 123.556 79.0298 123.112C79.0608 122.83 79.0763 122.541 79.0763 122.252V118.959C78.0509 119.416 65.3875 117.086 65.3875 117.086Z" fill="#8600B3"/>
<path d="M83.9836 111.404C83.9836 114.772 81.9664 117.672 79.0763 118.959C78.051 119.416 76.9145 119.669 75.7187 119.669H55.0564C53.8606 119.669 52.7242 119.416 51.6988 118.959C48.8087 117.672 46.7915 114.772 46.7915 111.404C46.7915 111.404 46.6701 99.332 46.6469 99.0169V99.0066L65.3876 96.4238L83.9139 99.0066L83.9836 111.404Z" fill="#6B008E"/>
<path d="M59.4472 119.669H55.0564C53.8606 119.669 52.7242 119.416 51.6988 118.959C48.8087 117.672 46.7915 114.772 46.7915 111.404C46.7915 111.404 46.6701 99.332 46.6469 99.0169V99.0066H51.0376V99.0169C51.0609 99.332 51.1823 111.404 51.1823 111.404C51.1823 114.772 53.1994 117.672 56.0895 118.959C57.1146 119.416 58.2511 119.669 59.4472 119.669Z" fill="#8600B3"/>
<path d="M83.9836 111.275H77.3975C76.3282 111.275 75.4604 110.407 75.4604 109.338C75.4604 108.268 76.3282 107.401 77.3975 107.401H83.9629L83.9732 109.338L83.9836 111.275Z" fill="#8600B3"/>
<path d="M70.2948 109.338C70.2948 110.407 69.427 111.275 68.3577 111.275H46.7889L46.745 107.401H68.3577C69.427 107.401 70.2948 108.268 70.2948 109.338Z" fill="#8600B3"/>
<path d="M65.0337 23.375C65.0334 23.375 65.0332 23.375 65.0329 23.375L65.0337 23.3742C45.0866 23.0674 28.312 40.4526 28.6707 60.2545C28.6707 70.3558 32.6714 79.5118 39.1542 86.1728C42.9742 90.1012 46.2801 93.7326 46.6469 99.0066L83.9139 99.0686C84.1231 93.6396 87.2095 89.972 91.0552 85.9558C97.4141 79.3155 101.33 70.2499 101.33 60.2545C101.329 39.897 85.0839 23.3931 65.0337 23.375Z" fill="#8600B3"/>
<path d="M83.9136 99.0609V99.0686L46.6466 99.0066C46.2799 93.7326 42.9739 90.1012 39.154 86.1728C32.6712 79.5118 28.6704 70.3558 28.6704 60.2545C28.3114 40.4523 45.0866 23.0676 65.0334 23.375C65.6766 23.375 66.3171 23.393 66.9525 23.4266C48.1111 24.5191 32.7177 41.2762 33.0612 60.2545C33.0612 70.3558 37.0619 79.5118 43.5447 86.1728C47.3646 90.1012 50.6706 93.7326 51.0373 99.0066L83.9136 99.0609Z" fill="#6B008E"/>
</g>
<defs>
<clipPath id="clip0">
<rect width="130" height="130" fill="white"/>
</clipPath>
</defs>
</svg>
