<svg width="181" height="136" viewBox="0 0 181 136" fill="none" xmlns="http://www.w3.org/2000/svg">
<path d="M73.3961 61.9456C94.3694 61.9456 111.37 45.059 111.37 24.2293C111.37 14.9994 108.021 6.55615 102.48 0C119.6 5.45818 131.997 21.384 131.997 40.2C131.997 63.5239 112.961 82.4296 89.4769 82.4296C70.5313 82.4296 54.4958 70.117 49 53.1143C55.6013 58.62 64.1054 61.9456 73.3961 61.9456Z" fill="#8257E6"/>
<path d="M115.757 7.05353C121.444 14.2299 124.862 23.2644 124.862 33.1092C124.862 56.4332 105.826 75.3389 82.3414 75.3389C72.4288 75.3389 63.332 71.9447 56.1062 66.2964C63.8875 76.1069 75.9287 82.4282 89.4795 82.4282C112.964 82.4282 132 63.5225 132 40.1985C132 26.7405 125.635 14.7842 115.757 7.05353Z" fill="#8257E6"/>
<path d="M70.2816 16.4844L74.6612 25.3024L84.4568 26.7145L77.3692 33.5768L79.0408 43.2659L70.2816 38.6919L61.5197 43.2659L63.1913 33.5768L56.1036 26.7145L65.8993 25.3024L70.2816 16.4844Z" fill="#8257E6"/>
<path d="M94.986 13.6628L97.2555 18.2342L102.334 18.9653L98.6587 22.5232L99.5277 27.5432L94.986 25.1731L90.4442 27.5432L91.3132 22.5232L87.6379 18.9653L92.7164 18.2342L94.986 13.6628Z" fill="#8257E6"/>
<path d="M16.192 126.572C14.432 126.572 12.6427 125.795 10.824 124.24L10.472 126H4.136L10.12 98.016L16.632 97.136L11.352 121.82C12.1733 122.407 13.0093 122.7 13.86 122.7C15.532 122.7 16.9987 121.732 18.26 119.796C19.5507 117.86 20.548 115.396 21.252 112.404C21.956 109.412 22.308 106.391 22.308 103.34C22.308 100.465 21.736 98.368 20.592 97.048C19.4773 95.6987 17.908 95.024 15.884 95.024C13.684 95.024 11.704 95.464 9.944 96.344C8.21333 97.1947 6.84933 98.4267 5.852 100.04C4.85467 101.653 4.356 103.545 4.356 105.716C4.356 106.801 4.45867 107.564 4.664 108.004C4.86933 108.415 4.972 108.649 4.972 108.708C3.44667 108.708 2.27333 108.385 1.452 107.74C0.66 107.095 0.264 106.053 0.264 104.616C0.264 102.621 1.012 100.729 2.508 98.94C4.004 97.1507 5.99867 95.7133 8.492 94.628C11.0147 93.5427 13.728 93 16.632 93C20.6507 93 23.6133 94.188 25.52 96.564C27.4267 98.94 28.38 101.976 28.38 105.672C28.38 109.016 27.808 112.316 26.664 115.572C25.5493 118.799 24.0533 121.439 22.176 123.492C20.2987 125.545 18.304 126.572 16.192 126.572ZM32.1678 104H38.5038L37.9318 106.728C38.9291 105.848 39.8238 105.173 40.6158 104.704C41.4371 104.235 42.3171 104 43.2558 104C44.1944 104 44.9278 104.323 45.4558 104.968C46.0131 105.613 46.2918 106.391 46.2918 107.3C46.2918 108.151 46.0131 108.899 45.4558 109.544C44.8984 110.189 44.1211 110.512 43.1238 110.512C42.4784 110.512 42.0384 110.365 41.8038 110.072C41.5984 109.749 41.4371 109.295 41.3198 108.708C41.2318 108.327 41.1438 108.048 41.0558 107.872C40.9678 107.696 40.8064 107.608 40.5718 107.608C39.9558 107.608 39.4278 107.74 38.9878 108.004C38.5771 108.239 38.0344 108.664 37.3598 109.28L33.8398 126H27.5038L32.1678 104ZM52.0108 126.264C49.8401 126.264 48.1534 125.707 46.9508 124.592C45.7481 123.448 45.1467 121.673 45.1467 119.268C45.1467 117.244 45.5427 115.015 46.3348 112.58C47.1268 110.145 48.4174 108.048 50.2068 106.288C51.9961 104.499 54.2694 103.604 57.0267 103.604C60.2534 103.604 61.8668 105.012 61.8668 107.828C61.8668 109.471 61.3974 110.981 60.4588 112.36C59.5201 113.739 58.2734 114.853 56.7188 115.704C55.1641 116.525 53.5068 116.995 51.7468 117.112C51.6881 117.992 51.6588 118.579 51.6588 118.872C51.6588 120.309 51.9081 121.292 52.4068 121.82C52.9054 122.319 53.7121 122.568 54.8268 122.568C56.4108 122.568 57.7601 122.201 58.8748 121.468C60.0188 120.735 61.2654 119.62 62.6148 118.124H64.1108C60.8548 123.551 56.8214 126.264 52.0108 126.264ZM52.0988 115C53.1841 114.941 54.2108 114.56 55.1788 113.856C56.1761 113.152 56.9681 112.257 57.5548 111.172C58.1708 110.087 58.4788 108.943 58.4788 107.74C58.4788 106.537 58.1121 105.936 57.3788 105.936C56.3228 105.936 55.2814 106.86 54.2548 108.708C53.2574 110.556 52.5388 112.653 52.0988 115ZM67.8855 126.264C66.2135 126.264 64.8201 125.692 63.7055 124.548C62.5908 123.404 62.0335 121.615 62.0335 119.18C62.0335 117.009 62.4588 114.736 63.3095 112.36C64.1895 109.955 65.4801 107.931 67.1815 106.288C68.9121 104.616 70.9655 103.78 73.3415 103.78C74.5441 103.78 75.4388 103.985 76.0255 104.396C76.6121 104.807 76.9055 105.349 76.9055 106.024V106.332L77.3895 104H83.7255L80.5575 118.96C80.4401 119.4 80.3815 119.869 80.3815 120.368C80.3815 121.629 80.9828 122.26 82.1855 122.26C83.0068 122.26 83.7108 121.879 84.2975 121.116C84.9135 120.353 85.3975 119.356 85.7495 118.124H87.5975C86.5121 121.292 85.1628 123.448 83.5495 124.592C81.9655 125.707 80.3668 126.264 78.7535 126.264C77.5215 126.264 76.5241 125.927 75.7615 125.252C75.0281 124.548 74.5881 123.536 74.4415 122.216C73.5908 123.419 72.6375 124.401 71.5815 125.164C70.5548 125.897 69.3228 126.264 67.8855 126.264ZM70.7455 121.996C71.4788 121.996 72.1975 121.659 72.9015 120.984C73.6348 120.28 74.1335 119.327 74.3975 118.124L76.5095 108.18C76.5095 107.799 76.3628 107.432 76.0695 107.08C75.7761 106.699 75.3215 106.508 74.7055 106.508C73.5321 106.508 72.4761 107.197 71.5375 108.576C70.5988 109.925 69.8655 111.568 69.3375 113.504C68.8095 115.411 68.5455 117.097 68.5455 118.564C68.5455 120.031 68.7508 120.969 69.1615 121.38C69.6015 121.791 70.1295 121.996 70.7455 121.996ZM111.77 126.264C110.215 126.264 109.086 125.795 108.382 124.856C107.678 123.917 107.326 122.729 107.326 121.292C107.326 120.676 107.399 119.987 107.546 119.224C107.692 118.432 107.839 117.669 107.986 116.936C108.162 116.203 108.279 115.733 108.338 115.528C108.572 114.501 108.792 113.489 108.998 112.492C109.203 111.495 109.306 110.688 109.306 110.072C109.306 108.576 108.778 107.828 107.722 107.828C106.959 107.828 106.284 108.209 105.698 108.972C105.111 109.705 104.642 110.673 104.29 111.876L101.298 126H94.9616L98.1736 110.82C98.2616 110.468 98.3056 110.101 98.3056 109.72C98.3056 108.429 97.8656 107.784 96.9856 107.784C96.1643 107.784 95.4456 108.165 94.8296 108.928C94.243 109.661 93.7736 110.644 93.4216 111.876L90.4296 126H84.0936L88.7576 104H95.0936L94.6096 106.288C96.1056 104.616 97.895 103.78 99.9776 103.78C102.559 103.78 104.07 105.041 104.51 107.564C106.123 105.071 108.162 103.824 110.626 103.824C112.122 103.824 113.31 104.235 114.19 105.056C115.07 105.877 115.51 107.124 115.51 108.796C115.51 109.647 115.407 110.6 115.202 111.656C114.996 112.683 114.703 113.944 114.322 115.44C114.087 116.349 113.867 117.244 113.662 118.124C113.486 118.975 113.398 119.649 113.398 120.148C113.398 120.735 113.53 121.189 113.794 121.512C114.058 121.835 114.512 121.996 115.158 121.996C115.862 121.996 116.346 121.908 116.61 121.732C116.434 123.228 115.891 124.357 114.982 125.12C114.102 125.883 113.031 126.264 111.77 126.264ZM121.457 126.176C120.489 126.176 119.668 125.839 118.993 125.164C118.319 124.489 117.981 123.668 117.981 122.7C117.981 121.732 118.319 120.911 118.993 120.236C119.668 119.532 120.489 119.18 121.457 119.18C122.425 119.18 123.247 119.532 123.921 120.236C124.625 120.911 124.977 121.732 124.977 122.7C124.977 123.668 124.625 124.489 123.921 125.164C123.247 125.839 122.425 126.176 121.457 126.176ZM154.928 126.264C153.138 126.264 151.818 125.795 150.968 124.856C150.146 123.888 149.736 122.7 149.736 121.292C149.736 120.676 149.809 119.987 149.956 119.224C150.102 118.432 150.249 117.669 150.396 116.936C150.572 116.203 150.689 115.733 150.748 115.528C150.982 114.501 151.202 113.489 151.408 112.492C151.613 111.495 151.716 110.688 151.716 110.072C151.716 108.576 151.188 107.828 150.132 107.828C149.369 107.828 148.694 108.209 148.108 108.972C147.521 109.705 147.052 110.673 146.7 111.876L143.708 126H137.372L140.584 110.82C140.672 110.468 140.716 110.101 140.716 109.72C140.716 108.429 140.276 107.784 139.396 107.784C138.574 107.784 137.856 108.165 137.24 108.928C136.653 109.661 136.184 110.644 135.832 111.876L132.84 126H126.504L131.168 104H137.504L137.02 106.288C138.516 104.616 140.305 103.78 142.388 103.78C144.969 103.78 146.48 105.041 146.92 107.564C148.533 105.071 150.572 103.824 153.036 103.824C154.532 103.824 155.72 104.235 156.6 105.056C157.48 105.877 157.92 107.124 157.92 108.796C157.92 109.647 157.817 110.6 157.612 111.656C157.406 112.683 157.113 113.944 156.732 115.44C156.497 116.349 156.277 117.244 156.072 118.124C155.896 118.975 155.808 119.649 155.808 120.148C155.808 120.735 155.94 121.189 156.204 121.512C156.468 121.835 156.922 121.996 157.568 121.996C158.448 121.996 159.152 121.688 159.68 121.072C160.208 120.427 160.736 119.444 161.264 118.124H163.112C162.026 121.351 160.765 123.521 159.328 124.636C157.92 125.721 156.453 126.264 154.928 126.264ZM167.466 126.264C165.324 126.264 163.652 125.707 162.45 124.592C161.247 123.448 160.646 121.673 160.646 119.268C160.646 117.244 161.042 115.015 161.834 112.58C162.626 110.145 163.916 108.048 165.706 106.288C167.495 104.499 169.768 103.604 172.526 103.604C175.752 103.604 177.366 105.012 177.366 107.828C177.366 109.471 176.896 110.981 175.958 112.36C175.019 113.739 173.772 114.853 172.218 115.704C170.663 116.525 169.006 116.995 167.246 117.112C167.187 117.757 167.158 118.197 167.158 118.432C167.158 120.867 168.067 122.084 169.886 122.084C170.707 122.084 171.587 121.864 172.526 121.424C173.464 120.984 174.315 120.427 175.078 119.752C174.286 124.093 171.748 126.264 167.466 126.264ZM167.554 115C168.668 114.971 169.71 114.604 170.678 113.9C171.675 113.196 172.467 112.301 173.054 111.216C173.67 110.101 173.978 108.943 173.978 107.74C173.978 106.537 173.611 105.936 172.878 105.936C171.851 105.936 170.824 106.875 169.798 108.752C168.8 110.6 168.052 112.683 167.554 115Z" fill="#8257E6"/>
</svg>
