<svg width="512" height="512" viewBox="0 0 512 512" fill="none" xmlns="http://www.w3.org/2000/svg">
<path d="M409.339 266.651H89.6563C83.7741 266.651 79.0002 261.872 79.0002 255.984C79.0002 250.096 83.7741 245.317 89.6563 245.317H409.339C415.221 245.317 419.995 250.096 419.995 255.984C419.995 261.872 415.221 266.651 409.339 266.651Z" fill="#8257E6"/>
<path d="M324.09 351.984C321.362 351.984 318.634 350.939 316.545 348.869C312.39 344.709 312.39 337.947 316.545 333.787L394.271 255.984L316.567 178.203C312.411 174.043 312.411 167.28 316.567 163.12C320.723 158.96 327.479 158.96 331.634 163.12L416.883 248.453C421.039 252.613 421.039 259.376 416.883 263.536L331.634 348.869C329.546 350.939 326.818 351.984 324.09 351.984Z" fill="#8257E6"/>
<path d="M256 490.667C355.307 490.667 444.224 427.797 477.269 334.229C479.232 328.661 476.309 322.581 470.763 320.619C465.195 318.699 459.115 321.579 457.152 327.125C427.115 412.181 346.283 469.333 256 469.333C138.368 469.333 42.6666 373.632 42.6666 256C42.6666 138.368 138.368 42.6667 256 42.6667C346.283 42.6667 427.115 99.8187 457.131 184.896C459.093 190.443 465.195 193.323 470.741 191.403C476.288 189.44 479.211 183.36 477.248 177.792C444.224 84.2027 355.307 21.3333 256 21.3333C126.613 21.3333 21.3333 126.613 21.3333 256C21.3333 385.387 126.613 490.667 256 490.667Z" fill="#8257E6"/>
</svg>
