<svg width="30" height="29" viewBox="0 0 30 29" fill="none" xmlns="http://www.w3.org/2000/svg">
<g clip-path="url(#clip0)">
<path d="M8.81788 21.1582C16.3986 21.1582 22.5432 15.4413 22.5432 8.38951C22.5432 5.2648 21.3329 2.40638 19.3302 0.186829C25.5181 2.03467 29.999 7.42627 29.999 13.7963C29.999 21.6925 23.1186 28.0929 14.6302 28.0929C7.7824 28.0929 1.98642 23.9246 0 18.1684C2.38601 20.0323 5.45978 21.1582 8.81788 21.1582Z" fill="white"/>
<path d="M24.1291 2.57492C26.1847 5.00445 27.42 8.06303 27.42 11.3959C27.42 19.2921 20.5395 25.6925 12.0511 25.6925C8.46826 25.6925 5.18029 24.5434 2.56854 22.6313C5.38104 25.9526 9.73331 28.0926 14.6312 28.0926C23.1196 28.0926 30 21.6922 30 13.796C30 9.23982 27.6995 5.19209 24.1291 2.57492Z" fill="white"/>
<path d="M7.69212 5.76752L9.27511 8.75283L12.8157 9.23087L10.2539 11.5541L10.8581 14.8342L7.69212 13.2857L4.52517 14.8342L5.12936 11.5541L2.56757 9.23087L6.10817 8.75283L7.69212 5.76752Z" fill="white"/>
<path d="M16.6214 4.81232L17.4418 6.35992L19.2774 6.60743L17.9489 7.81192L18.263 9.51143L16.6214 8.70904L14.9799 9.51143L15.294 7.81192L13.9655 6.60743L15.8011 6.35992L16.6214 4.81232Z" fill="white"/>
</g>
<defs>
<clipPath id="clip0">
<rect width="30" height="27.907" fill="white" transform="translate(0 0.186035)"/>
</clipPath>
</defs>
</svg>
