<svg width="512" height="512" viewBox="0 0 512 512" fill="none" xmlns="http://www.w3.org/2000/svg">
<g clip-path="url(#clip0)">
<path d="M248.069 80.8007H248.159L408.108 37.8993C417.542 35.415 427.205 41.0165 429.737 50.4342L452.513 135.53L462.841 174.107V174.197L511.391 355.158C513.918 364.564 508.348 374.243 498.942 376.782L401.577 402.825L248.069 80.8007Z" fill="#FFE475"/>
<path d="M99.5916 47.0827C103.744 44.2976 108.9 43.4578 113.716 44.7859L454.806 136.151C464.212 138.69 469.783 148.37 467.255 157.776L375.89 498.866C373.351 508.272 363.672 513.842 354.262 511.315L13.1716 419.949C3.76555 417.41 -1.80464 407.731 0.726549 398.321L74.1702 124.144L99.5916 47.0827Z" fill="#FFEA95"/>
<path d="M399.229 198.646C398.456 198.65 397.69 198.548 396.944 198.349L271.381 164.74C266.674 163.479 263.877 158.639 265.143 153.928C266.404 149.217 271.244 146.424 275.955 147.686L401.515 181.338C405.796 182.482 408.561 186.623 407.987 191.013C407.409 195.404 403.667 198.689 399.237 198.693L399.229 198.646Z" fill="#8257E6"/>
<path d="M385.511 249.848C384.742 249.848 383.972 249.746 383.226 249.547L297.865 226.708C294.806 225.907 292.408 223.528 291.583 220.473C290.759 217.419 291.634 214.157 293.872 211.923C296.111 209.689 299.376 208.821 302.427 209.653L387.788 232.493C392.069 233.637 394.835 237.774 394.261 242.168C393.683 246.559 389.941 249.844 385.511 249.848Z" fill="#8257E6"/>
<path d="M371.839 301.046C371.062 301.046 370.293 300.944 369.543 300.745L263.35 272.242C258.639 270.976 255.85 266.133 257.112 261.422C258.377 256.715 263.221 253.922 267.932 255.188L374.125 283.691C378.406 284.835 381.171 288.976 380.593 293.37C380.015 297.765 376.269 301.046 371.839 301.046V301.046Z" fill="#8257E6"/>
<path d="M110.838 285.914C110.065 285.918 109.291 285.816 108.545 285.617L82.9436 278.758C78.2366 277.492 75.4436 272.648 76.7092 267.937C77.971 263.23 82.8147 260.437 87.5256 261.703L113.127 268.558C117.405 269.707 120.174 273.848 119.596 278.242C119.018 282.633 115.272 285.918 110.838 285.914V285.914Z" fill="#8257E6"/>
<path d="M358.101 352.166C357.332 352.166 356.562 352.064 355.816 351.865L159.707 299.28C154.997 298.019 152.204 293.175 153.465 288.464C154.727 283.757 159.571 280.96 164.282 282.226L360.39 334.764C364.668 335.912 367.437 340.049 366.859 344.443C366.281 348.834 362.543 352.119 358.113 352.119L358.101 352.166Z" fill="#8257E6"/>
<path d="M97.1236 337.069C96.3502 337.073 95.5806 336.971 94.8345 336.768L69.2369 329.921C64.526 328.659 61.733 323.815 62.9947 319.104C64.2564 314.397 69.1002 311.6 73.8072 312.866L99.4088 319.714C103.69 320.862 106.456 325.003 105.878 329.397C105.299 333.788 101.553 337.073 97.1236 337.069V337.069Z" fill="#8257E6"/>
<path d="M344.403 403.329C343.629 403.329 342.864 403.227 342.117 403.028L145.997 350.478C142.95 349.662 140.571 347.283 139.755 344.236C138.942 341.19 139.813 337.936 142.044 335.709C144.274 333.479 147.524 332.608 150.571 333.424L346.68 385.974C350.957 387.118 353.727 391.259 353.148 395.649C352.574 400.04 348.832 403.325 344.403 403.329V403.329Z" fill="#8257E6"/>
<path d="M255.748 266.972L197.578 247.551L247.541 197.587L266.959 255.762C268.002 258.941 267.162 262.441 264.795 264.808C262.428 267.176 258.932 268.011 255.748 266.972V266.972Z" fill="#BDC3C7"/>
<path d="M85.2911 35.3408L35.3273 85.3045L10.3474 60.3207C-3.44914 46.5241 -3.44914 24.1575 10.3474 10.3609C24.144 -3.43959 46.5146 -3.43959 60.3112 10.3609L85.2911 35.3408Z" fill="#6C48C1"/>
<path d="M247.541 197.587L228.827 216.302V216.391L216.378 228.837H216.292L197.578 247.551L60.3112 110.284L79.1115 91.57L91.5605 79.125L110.275 60.3207L247.541 197.587Z" fill="#8257E6"/>
<path d="M35.3352 85.3045L85.295 35.3408L110.275 60.3246L60.3151 110.284L35.3352 85.3045Z" fill="#BDC3C7"/>
<path d="M122.72 122.733C121.04 124.366 118.794 125.284 116.454 125.292C114.138 125.28 111.919 124.362 110.275 122.733L79.1115 91.57L91.5605 79.125L122.72 110.284C126.142 113.73 126.142 119.288 122.72 122.733Z" fill="#6C48C1"/>
<path d="M228.827 216.302V216.392L216.378 228.837H216.292L135.169 147.713C132.927 145.475 132.052 142.21 132.872 139.151C133.692 136.092 136.083 133.702 139.141 132.886C142.2 132.065 145.462 132.94 147.704 135.178L228.827 216.302Z" fill="#6C48C1"/>
</g>
<defs>
<clipPath id="clip0">
<rect width="512" height="512" fill="white"/>
</clipPath>
</defs>
</svg>
