<svg width="511" height="511" viewBox="0 0 511 511" fill="none" xmlns="http://www.w3.org/2000/svg">
<path d="M116.76 88.1204H233.933C238.069 88.1204 241.418 84.7676 241.418 80.6311C241.418 76.4986 238.069 73.1458 233.933 73.1458H116.76C112.627 73.1458 109.275 76.4986 109.275 80.6311C109.275 84.7676 112.627 88.1204 116.76 88.1204Z" fill="#8257E6"/>
<path d="M360.248 164.19H172.187C168.05 164.19 164.701 167.543 164.701 171.676C164.701 175.812 168.05 179.161 172.187 179.161H360.248C364.385 179.161 367.734 175.812 367.734 171.676C367.734 167.543 364.385 164.19 360.248 164.19Z" fill="#8257E6"/>
<path d="M116.76 179.161H137.349C141.485 179.161 144.834 175.812 144.834 171.676C144.834 167.543 141.485 164.19 137.349 164.19H116.76C112.627 164.19 109.275 167.543 109.275 171.676C109.275 175.812 112.627 179.161 116.76 179.161Z" fill="#8257E6"/>
<path d="M367.734 224.186C367.734 220.05 364.385 216.701 360.248 216.701H116.76C112.627 216.701 109.275 220.05 109.275 224.186C109.275 228.319 112.627 231.672 116.76 231.672H360.248C364.385 231.672 367.734 228.319 367.734 224.186Z" fill="#8257E6"/>
<path d="M304.931 276.693C304.931 272.56 301.578 269.208 297.446 269.208H116.76C112.627 269.208 109.275 272.56 109.275 276.693C109.275 280.825 112.627 284.178 116.76 284.178H297.446C301.578 284.178 304.931 280.825 304.931 276.693Z" fill="#8257E6"/>
<path d="M116.76 423.613C112.627 423.613 109.275 426.965 109.275 431.098C109.275 435.234 112.627 438.583 116.76 438.583H175.247C179.383 438.583 182.732 435.234 182.732 431.098C182.732 426.965 179.383 423.613 175.247 423.613H116.76Z" fill="#8257E6"/>
<path d="M411.586 322.295C407.449 322.295 404.1 325.644 404.1 329.78V488.907C404.1 491.324 402.135 493.293 399.714 493.293H49.2513C46.8342 493.293 44.8693 491.328 44.8693 488.907V466.533H50.9316C64.0739 466.533 74.7639 455.839 74.7639 442.696C74.7639 429.554 64.0739 418.864 50.9316 418.864H44.8693V391.706H50.9316C64.0739 391.706 74.7639 381.012 74.7639 367.87C74.7639 354.728 64.0739 344.038 50.9316 344.038H44.8693V316.876H50.9316C64.0739 316.876 74.7639 306.186 74.7639 293.044C74.7639 279.901 64.0739 269.208 50.9316 269.208H44.8693V242.05H50.9316C64.0739 242.05 74.7639 231.36 74.7639 218.217C74.7639 205.075 64.0739 194.381 50.9316 194.381H44.8693V167.223H50.9316C64.0739 167.223 74.7639 156.53 74.7639 143.387C74.7639 130.245 64.0739 119.555 50.9316 119.555H44.8693V92.3933H50.9316C64.0739 92.3933 74.7639 81.6993 74.7639 68.561C74.7639 55.4148 64.0739 44.7248 50.9316 44.7248H44.8693V22.3467C44.8693 19.9334 46.8342 17.9646 49.2513 17.9646H399.718C402.135 17.9646 404.1 19.9295 404.1 22.3467V185.333C404.1 189.465 407.453 192.818 411.586 192.818C415.722 192.818 419.071 189.465 419.071 185.333V22.3467C419.071 11.6761 410.389 2.9939 399.718 2.9939H49.2513C38.5808 2.9939 29.8986 11.6761 29.8986 22.3467V44.7248H23.8362C10.6939 44.7248 3.8147e-06 55.4148 3.8147e-06 68.561C3.8147e-06 81.6993 10.6939 92.3933 23.8362 92.3933H29.8986V119.551H23.8362C10.6939 119.551 3.8147e-06 130.245 3.8147e-06 143.387C3.8147e-06 156.53 10.6939 167.223 23.8362 167.223H29.8986V194.381H23.8362C10.6939 194.381 3.8147e-06 205.071 3.8147e-06 218.214C3.8147e-06 231.356 10.6939 242.05 23.8362 242.05H29.8986V269.208H23.8362C10.6939 269.208 3.8147e-06 279.901 3.8147e-06 293.044C3.8147e-06 306.182 10.6939 316.876 23.8362 316.876H29.8986V344.034H23.8362C10.6939 344.034 3.8147e-06 354.728 3.8147e-06 367.87C3.8147e-06 381.012 10.6939 391.702 23.8362 391.702H29.8986V418.864H23.8362C10.6939 418.864 3.8147e-06 429.554 3.8147e-06 442.696C3.8147e-06 455.839 10.6939 466.533 23.8362 466.533H29.8986V488.907C29.8986 499.581 38.5808 508.263 49.2513 508.263H399.718C410.389 508.263 419.071 499.581 419.071 488.907V329.78C419.071 325.644 415.718 322.295 411.586 322.295V322.295ZM23.8362 77.4225C18.9473 77.4225 14.9707 73.4459 14.9707 68.561C14.9707 63.6721 18.9473 59.6955 23.8362 59.6955H50.9316C55.8166 59.6955 59.7932 63.6721 59.7932 68.561C59.7932 73.4459 55.8166 77.4225 50.9316 77.4225H23.8362ZM23.8362 152.253C18.9473 152.253 14.9707 148.276 14.9707 143.387C14.9707 138.498 18.9473 134.526 23.8362 134.526H50.9316C55.8166 134.526 59.7932 138.498 59.7932 143.387C59.7932 148.276 55.8166 152.253 50.9316 152.253H23.8362ZM23.8362 227.079C18.9473 227.079 14.9707 223.102 14.9707 218.214C14.9707 213.329 18.9473 209.352 23.8362 209.352H50.9316C55.8166 209.352 59.7932 213.329 59.7932 218.214C59.7932 223.102 55.8166 227.079 50.9316 227.079H23.8362ZM23.8362 301.905C18.9473 301.905 14.9707 297.929 14.9707 293.044C14.9707 288.155 18.9473 284.178 23.8362 284.178H50.9316C55.8166 284.178 59.7932 288.155 59.7932 293.044C59.7932 297.929 55.8166 301.905 50.9316 301.905H23.8362ZM23.8362 376.736C18.9473 376.736 14.9707 372.759 14.9707 367.87C14.9707 362.985 18.9473 359.008 23.8362 359.008H50.9316C55.8166 359.008 59.7932 362.985 59.7932 367.87C59.7932 372.759 55.8166 376.736 50.9316 376.736H23.8362ZM23.8362 451.562C18.9473 451.562 14.9707 447.585 14.9707 442.696C14.9707 437.811 18.9473 433.835 23.8362 433.835H50.9316C55.8166 433.835 59.7932 437.811 59.7932 442.696C59.7932 447.585 55.8166 451.562 50.9316 451.562H23.8362Z" fill="#8257E6"/>
<path d="M502.388 171.34L496.786 165.738C491.223 160.175 483.827 157.11 475.96 157.11C468.092 157.11 460.697 160.175 455.133 165.738L232.233 388.634C227.294 393.574 223.185 399.238 220.019 405.464L194.69 455.273C192.031 460.497 193.033 466.798 197.177 470.946C197.504 471.269 197.84 471.577 198.19 471.862C200.576 473.815 203.504 474.844 206.483 474.895C206.561 474.899 206.643 474.907 206.721 474.907C208.799 474.907 210.9 474.427 212.849 473.433L262.658 448.108C268.884 444.942 274.545 440.829 279.485 435.889L502.385 212.989C513.87 201.508 513.87 182.822 502.388 171.34V171.34ZM257.703 433.784C257.099 434.123 256.491 434.451 255.875 434.763L210.073 458.049L233.364 412.252C233.676 411.632 234.007 411.02 234.346 410.412C234.35 410.404 234.354 410.4 234.358 410.392C244.37 415.57 252.557 423.753 257.73 433.768C257.722 433.772 257.711 433.78 257.703 433.784ZM252.861 404.677C249.968 402.349 246.88 400.256 243.633 398.412L408.042 234.003L415.788 241.75L252.861 404.677ZM269.715 424.494C267.871 421.242 265.773 418.158 263.446 415.266L426.373 252.338L434.124 260.085L269.715 424.494ZM444.708 249.5L418.626 223.418L428.4 213.644L454.482 239.726L444.708 249.5ZM491.8 202.405L465.067 229.137L438.985 203.056L465.718 176.323C468.455 173.59 472.092 172.081 475.96 172.081C479.827 172.081 483.465 173.586 486.197 176.323L491.8 181.925C497.449 187.57 497.449 196.759 491.8 202.405V202.405Z" fill="#8257E6"/>
</svg>
