<svg width="374" height="374" viewBox="0 0 374 374" fill="none" xmlns="http://www.w3.org/2000/svg">
<g clip-path="url(#clip0)">
<path d="M266.661 235.12H249.702L243.835 229.242C264.741 204.982 277.327 173.454 277.327 138.935C277.327 62.1999 215.248 0 138.664 0C62.0797 0 0 62.1999 0 138.935C0 215.67 62.0787 277.87 138.664 277.87C173.116 277.87 204.583 265.258 228.795 244.418L234.662 250.297V267.182L341.326 373.841L373.112 341.992L266.661 235.12ZM138.664 235.12C85.6522 235.12 42.6661 192.05 42.6661 138.935C42.6661 85.8195 85.6522 42.7494 138.664 42.7494C191.676 42.7494 234.662 85.8195 234.662 138.935C234.662 192.05 191.676 235.12 138.664 235.12Z" fill="#8257E6"/>
</g>
<defs>
<clipPath id="clip0">
<rect width="373.112" height="373.841" fill="#8257E6"/>
</clipPath>
</defs>
</svg>
